<svg xmlns="http://www.w3.org/2000/svg" xmlns:svg="http://www.w3.org/2000/svg" id="Calque_1" width="282" height="152" x="0" y="0" enable-background="new 0 0 800 600" version="1.1" viewBox="0 0 282 152" xml:space="preserve"><metadata id="metadata87"/><line id="line3" x1="1" x2="281" y1="1" y2="1" style="fill:none;stroke:#8eb961;stroke-width:2;stroke-opacity:1;opacity:.5"/><line id="line5" x1="1" x2="1" y1="1" y2="151" style="fill:none;stroke:#8eb961;stroke-width:2;stroke-opacity:1;opacity:.5"/><line id="line7" x1="1" x2="281" y1="151" y2="151" style="fill:none;stroke:#8eb961;stroke-width:2;stroke-opacity:1;opacity:.5"/><line id="line9" x1="141" x2="141" y1="1" y2="151" style="fill:none;stroke:#8eb961;stroke-width:2;stroke-opacity:1;opacity:.5"/><circle id="circle11" cx="141" cy="76" r="18" style="fill:none;stroke:#8eb961;stroke-width:2;stroke-opacity:1;opacity:.5"/><line id="line13" x1="16.75" x2="34.22" y1="8.5" y2="10.8" style="fill:none;stroke:#8eb961;stroke-width:2;stroke-opacity:1;opacity:.5"/><line id="line15" x1="34.22" x2="50.5" y1="10.8" y2="17.543" style="fill:none;stroke:#8eb961;stroke-width:2;stroke-opacity:1;opacity:.5"/><line id="line17" x1="50.5" x2="64.479" y1="17.543" y2="28.27" style="fill:none;stroke:#8eb961;stroke-width:2;stroke-opacity:1;opacity:.5"/><line id="line19" x1="64.479" x2="75.206" y1="28.27" y2="42.25" style="fill:none;stroke:#8eb961;stroke-width:2;stroke-opacity:1;opacity:.5"/><line id="line21" x1="75.206" x2="81.95" y1="42.25" y2="58.53" style="fill:none;stroke:#8eb961;stroke-width:2;stroke-opacity:1;opacity:.5"/><line id="line23" x1="81.95" x2="84.25" y1="58.53" y2="76" style="fill:none;stroke:#8eb961;stroke-width:2;stroke-opacity:1;opacity:.5"/><line id="line25" x1="84.25" x2="81.95" y1="76" y2="93.47" style="fill:none;stroke:#8eb961;stroke-width:2;stroke-opacity:1;opacity:.5"/><line id="line27" x1="81.95" x2="75.206" y1="93.47" y2="109.75" style="fill:none;stroke:#8eb961;stroke-width:2;stroke-opacity:1;opacity:.5"/><line id="line29" x1="75.206" x2="64.479" y1="109.75" y2="123.729" style="fill:none;stroke:#8eb961;stroke-width:2;stroke-opacity:1;opacity:.5"/><line id="line31" x1="64.479" x2="50.5" y1="123.729" y2="134.456" style="fill:none;stroke:#8eb961;stroke-width:2;stroke-opacity:1;opacity:.5"/><line id="line33" x1="50.5" x2="34.22" y1="134.456" y2="141.2" style="fill:none;stroke:#8eb961;stroke-width:2;stroke-opacity:1;opacity:.5"/><line id="line35" x1="34.22" x2="16.75" y1="141.2" y2="143.5" style="fill:none;stroke:#8eb961;stroke-width:2;stroke-opacity:1;opacity:.5"/><line id="line37" x1="16.75" x2="1" y1="143.5" y2="143.5" style="fill:none;stroke:#8eb961;stroke-width:2;stroke-opacity:1;opacity:.5"/><line id="line39" x1="16.75" x2="1" y1="8.5" y2="8.5" style="fill:none;stroke:#8eb961;stroke-width:2;stroke-opacity:1;opacity:.5"/><circle id="circle41" cx="16.75" cy="76" r="5" style="fill:none;stroke:#8eb961;stroke-width:2;stroke-opacity:1;opacity:.5"/><line id="line43" x1="6" x2="6" y1="67.265" y2="84.735" style="fill:none;stroke:#8eb961;stroke-width:2;stroke-opacity:1;opacity:.5"/><line id="line45" x1="11.75" x2="6" y1="76" y2="76" style="fill:none;stroke:#8eb961;stroke-width:2;stroke-opacity:1;opacity:.5"/><line id="line47" x1="281" x2="281" y1="151" y2="1" style="fill:none;stroke:#8eb961;stroke-width:2;stroke-opacity:1;opacity:.5"/><line id="line49" x1="265.25" x2="247.779" y1="143.5" y2="141.2" style="fill:none;stroke:#8eb961;stroke-width:2;stroke-opacity:1;opacity:.5"/><line id="line51" x1="247.779" x2="231.5" y1="141.2" y2="134.457" style="fill:none;stroke:#8eb961;stroke-width:2;stroke-opacity:1;opacity:.5"/><line id="line53" x1="231.5" x2="217.52" y1="134.457" y2="123.729" style="fill:none;stroke:#8eb961;stroke-width:2;stroke-opacity:1;opacity:.5"/><line id="line55" x1="217.52" x2="206.793" y1="123.729" y2="109.75" style="fill:none;stroke:#8eb961;stroke-width:2;stroke-opacity:1;opacity:.5"/><line id="line57" x1="206.793" x2="200.049" y1="109.75" y2="93.47" style="fill:none;stroke:#8eb961;stroke-width:2;stroke-opacity:1;opacity:.5"/><line id="line59" x1="200.049" x2="197.75" y1="93.47" y2="76" style="fill:none;stroke:#8eb961;stroke-width:2;stroke-opacity:1;opacity:.5"/><line id="line61" x1="197.75" x2="200.049" y1="76" y2="58.53" style="fill:none;stroke:#8eb961;stroke-width:2;stroke-opacity:1;opacity:.5"/><line id="line63" x1="200.049" x2="206.793" y1="58.53" y2="42.25" style="fill:none;stroke:#8eb961;stroke-width:2;stroke-opacity:1;opacity:.5"/><line id="line65" x1="206.793" x2="217.52" y1="42.25" y2="28.27" style="fill:none;stroke:#8eb961;stroke-width:2;stroke-opacity:1;opacity:.5"/><line id="line67" x1="217.52" x2="231.5" y1="28.27" y2="17.543" style="fill:none;stroke:#8eb961;stroke-width:2;stroke-opacity:1;opacity:.5"/><line id="line69" x1="231.5" x2="247.779" y1="17.543" y2="10.8" style="fill:none;stroke:#8eb961;stroke-width:2;stroke-opacity:1;opacity:.5"/><line id="line71" x1="247.779" x2="265.25" y1="10.8" y2="8.5" style="fill:none;stroke:#8eb961;stroke-width:2;stroke-opacity:1;opacity:.5"/><line id="line73" x1="265.25" x2="281" y1="8.5" y2="8.5" style="fill:none;stroke:#8eb961;stroke-width:2;stroke-opacity:1;opacity:.5"/><line id="line75" x1="265.25" x2="281" y1="143.5" y2="143.5" style="fill:none;stroke:#8eb961;stroke-width:2;stroke-opacity:1;opacity:.5"/><circle id="circle77" cx="265.25" cy="76" r="5" style="fill:none;stroke:#8eb961;stroke-width:2;stroke-opacity:1;opacity:.5"/><line id="line79" x1="276" x2="276" y1="84.735" y2="67.265" style="fill:none;stroke:#8eb961;stroke-width:2;stroke-opacity:1;opacity:.5"/><line id="line81" x1="270.25" x2="276" y1="76" y2="76" style="fill:none;stroke:#8eb961;stroke-width:2;stroke-opacity:1;opacity:.5"/></svg>