<svg xmlns="http://www.w3.org/2000/svg" xmlns:svg="http://www.w3.org/2000/svg" id="svg2" width="18" height="18" version="1.1" viewBox="0 0 18 18"><metadata id="metadata7"/><g id="layer1" transform="translate(0,-1034.3622)"><circle style="fill:#fff;fill-opacity:.00392157;stroke:none;stroke-width:1;stroke-miterlimit:4;stroke-dasharray:none" id="path4154" cx="9" cy="1043.362" r="9"/><path style="fill:#fff;fill-opacity:1;fill-rule:evenodd;stroke:none;stroke-width:1px;stroke-linecap:butt;stroke-linejoin:miter;stroke-opacity:1" id="path4151" d="m 9,1043.3622 -2,-9 4,0 z"/><path style="fill:#000;fill-opacity:1;fill-rule:evenodd;stroke:none;stroke-width:1px;stroke-linecap:butt;stroke-linejoin:miter;stroke-opacity:1" id="path4155" d="m 9,1041.3622 -1,-7 2,0 z"/><path style="fill:#fff;fill-opacity:1;fill-rule:evenodd;stroke:none;stroke-width:1px;stroke-linecap:butt;stroke-linejoin:miter;stroke-opacity:1" id="path4151-6" d="m 8.986,1043.3762 9,-2 0,4 z"/><path style="fill:#000;fill-opacity:1;fill-rule:evenodd;stroke:none;stroke-width:1px;stroke-linecap:butt;stroke-linejoin:miter;stroke-opacity:1" id="path4155-7" d="m 10.986,1043.3762 7,-1 0,2 z"/><path style="fill:#fff;fill-opacity:1;fill-rule:evenodd;stroke:none;stroke-width:1px;stroke-linecap:butt;stroke-linejoin:miter;stroke-opacity:1" id="path4151-62" d="m 9.004706,1043.3388 2,9 -4,0 z"/><path style="fill:#000;fill-opacity:1;fill-rule:evenodd;stroke:none;stroke-width:1px;stroke-linecap:butt;stroke-linejoin:miter;stroke-opacity:1" id="path4155-9" d="m 9.004706,1045.3388 1,7 -2,0 z"/><path style="fill:#fff;fill-opacity:1;fill-rule:evenodd;stroke:none;stroke-width:1px;stroke-linecap:butt;stroke-linejoin:miter;stroke-opacity:1" id="path4151-6-2" d="m 9.0187,1043.3248 -9,2 0,-4 z"/><path style="fill:#000;fill-opacity:1;fill-rule:evenodd;stroke:none;stroke-width:1px;stroke-linecap:butt;stroke-linejoin:miter;stroke-opacity:1" id="path4155-7-7" d="m 7.0187,1043.3248 -7,1 0,-2 z"/><path style="fill:#fff;fill-opacity:1;fill-rule:evenodd;stroke:none;stroke-width:1px;stroke-linecap:butt;stroke-linejoin:miter;stroke-opacity:1" id="path4151-0" d="m 9.0204554,1043.3665 4.9497476,-7.7782 2.828427,2.8284 z"/><path style="fill:#000;fill-opacity:1;fill-rule:evenodd;stroke:none;stroke-width:1px;stroke-linecap:butt;stroke-linejoin:miter;stroke-opacity:1" id="path4155-6" d="m 10.434669,1041.9522 4.242641,-5.6568 1.414213,1.4142 z"/><path style="fill:#fff;fill-opacity:1;fill-rule:evenodd;stroke:none;stroke-width:1px;stroke-linecap:butt;stroke-linejoin:miter;stroke-opacity:1" id="path4151-6-6" d="m 9.0006534,1043.3665 7.7781746,4.9497 -2.828427,2.8284 z"/><path style="fill:#000;fill-opacity:1;fill-rule:evenodd;stroke:none;stroke-width:1px;stroke-linecap:butt;stroke-linejoin:miter;stroke-opacity:1" id="path4155-7-1" d="m 10.414867,1044.7807 5.656854,4.2426 -1.414213,1.4142 z"/><path style="fill:#fff;fill-opacity:1;fill-rule:evenodd;stroke:none;stroke-width:1px;stroke-linecap:butt;stroke-linejoin:miter;stroke-opacity:1" id="path4151-62-9" d="M 9.0403246,1043.3533 4.0905771,1051.1314 1.26215,1048.303 Z"/><path style="fill:#000;fill-opacity:1;fill-rule:evenodd;stroke:none;stroke-width:1px;stroke-linecap:butt;stroke-linejoin:miter;stroke-opacity:1" id="path4155-9-2" d="m 7.626111,1044.7675 -4.2426406,5.6568 -1.4142136,-1.4142 z"/></g></svg>