<svg xmlns="http://www.w3.org/2000/svg" width="90" height="60" viewBox="0 0 9 6"><rect width="1" height="1" x="0" y="0" fill="#F7F7F7"/><rect width="1" height="1" x="1" y="0" fill="#101010"/><rect width="1" height="1" x="2" y="0" fill="#F7F7F7"/><rect width="1" height="1" x="3" y="0" fill="#101010"/><rect width="1" height="1" x="4" y="0" fill="#F7F7F7"/><rect width="1" height="1" x="5" y="0" fill="#101010"/><rect width="1" height="1" x="6" y="0" fill="#F7F7F7"/><rect width="1" height="1" x="7" y="0" fill="#101010"/><rect width="1" height="1" x="8" y="0" fill="#F7F7F7"/><rect width="1" height="1" x="1" y="1" fill="#F7F7F7"/><rect width="1" height="1" x="0" y="1" fill="#101010"/><rect width="1" height="1" x="3" y="1" fill="#F7F7F7"/><rect width="1" height="1" x="2" y="1" fill="#101010"/><rect width="1" height="1" x="5" y="1" fill="#F7F7F7"/><rect width="1" height="1" x="4" y="1" fill="#101010"/><rect width="1" height="1" x="7" y="1" fill="#F7F7F7"/><rect width="1" height="1" x="6" y="1" fill="#101010"/><rect width="1" height="1" x="8" y="1" fill="#101010"/><rect width="1" height="1" x="0" y="2" fill="#F7F7F7"/><rect width="1" height="1" x="1" y="2" fill="#101010"/><rect width="1" height="1" x="2" y="2" fill="#F7F7F7"/><rect width="1" height="1" x="3" y="2" fill="#101010"/><rect width="1" height="1" x="4" y="2" fill="#F7F7F7"/><rect width="1" height="1" x="5" y="2" fill="#101010"/><rect width="1" height="1" x="6" y="2" fill="#F7F7F7"/><rect width="1" height="1" x="7" y="2" fill="#101010"/><rect width="1" height="1" x="8" y="2" fill="#F7F7F7"/><rect width="1" height="1" x="1" y="3" fill="#F7F7F7"/><rect width="1" height="1" x="0" y="3" fill="#101010"/><rect width="1" height="1" x="3" y="3" fill="#F7F7F7"/><rect width="1" height="1" x="2" y="3" fill="#101010"/><rect width="1" height="1" x="5" y="3" fill="#F7F7F7"/><rect width="1" height="1" x="4" y="3" fill="#101010"/><rect width="1" height="1" x="7" y="3" fill="#F7F7F7"/><rect width="1" height="1" x="6" y="3" fill="#101010"/><rect width="1" height="1" x="8" y="3" fill="#101010"/><rect width="1" height="1" x="0" y="4" fill="#F7F7F7"/><rect width="1" height="1" x="1" y="4" fill="#101010"/><rect width="1" height="1" x="2" y="4" fill="#F7F7F7"/><rect width="1" height="1" x="3" y="4" fill="#101010"/><rect width="1" height="1" x="4" y="4" fill="#F7F7F7"/><rect width="1" height="1" x="5" y="4" fill="#101010"/><rect width="1" height="1" x="6" y="4" fill="#F7F7F7"/><rect width="1" height="1" x="7" y="4" fill="#101010"/><rect width="1" height="1" x="8" y="4" fill="#F7F7F7"/><rect width="1" height="1" x="1" y="5" fill="#F7F7F7"/><rect width="1" height="1" x="0" y="5" fill="#101010"/><rect width="1" height="1" x="3" y="5" fill="#F7F7F7"/><rect width="1" height="1" x="2" y="5" fill="#101010"/><rect width="1" height="1" x="5" y="5" fill="#F7F7F7"/><rect width="1" height="1" x="4" y="5" fill="#101010"/><rect width="1" height="1" x="7" y="5" fill="#F7F7F7"/><rect width="1" height="1" x="6" y="5" fill="#101010"/><rect width="1" height="1" x="8" y="5" fill="#101010"/></svg>